<svg width="670" height="300" viewBox="0 0 670 300" fill="none" xmlns="http://www.w3.org/2000/svg">
<mask id="mask0_19358_4880" style="mask-type:alpha" maskUnits="userSpaceOnUse" x="245" y="0" width="200" height="300">
<path d="M329 100L261 100C252.163 100 245 92.8366 245 84L245 16C245 7.16345 252.163 7.53664e-06 261 6.76413e-06L338.373 0C342.616 0 346.686 1.68571 349.686 4.68629L440.314 95.3137C443.314 98.3143 445 102.384 445 106.627V193.373C445 197.616 443.314 201.686 440.314 204.686L349.687 295.314C346.686 298.314 342.616 300 338.373 300H261C252.163 300 245 292.837 245 284L245 216C245 207.163 252.163 200 261 200L329 200C337.837 200 345 192.837 345 184L345 116C345 107.163 337.837 100 329 100Z" fill="#9D8DFF"/>
</mask>
<g mask="url(#mask0_19358_4880)">
<path d="M345 200L445 200L345 100L345 200Z" fill="#4A49CB"/>
<path d="M445 100L345 100L445 200L445 100Z" fill="#9D8DFF"/>
<path d="M345 100L445 100L345 0.000479539L345 100Z" fill="#B0A8FF"/>
<path d="M245 0L245 100L345 1.31134e-05L245 0Z" fill="#B0A8FF"/>
<path d="M345 200L345 300L445 200L345 200Z" fill="#6559FF"/>
<path d="M245 300L345 300L245 200L245 300Z" fill="#6559FF"/>
<path d="M345 200L245 200L345 300L345 200Z" fill="#4A49CB"/>
<path d="M345 100L345 0.000488281L245 100L345 100Z" fill="#9D8DFF"/>
</g>
<mask id="mask1_19358_4880" style="mask-type:alpha" maskUnits="userSpaceOnUse" x="470" y="6" width="200" height="288">
<path d="M670 99.9996H608.627C594.373 99.9996 587.234 117.234 597.314 127.313L658.686 188.686C664.935 194.934 664.935 205.065 658.686 211.313L581.314 288.686C575.065 294.934 564.935 294.934 558.686 288.686L470 200L531.373 200C545.627 200 552.766 182.765 542.686 172.686L481.314 111.313C475.065 105.065 475.065 94.9343 481.314 88.6859L558.686 11.3137C564.934 5.0653 575.065 5.06531 581.313 11.3137L670 99.9996Z" fill="#B0A8FF"/>
</mask>
<g mask="url(#mask1_19358_4880)">
<path d="M570 200L670 200L570 100L570 200Z" fill="#9D8DFF"/>
<path d="M570 200L570 300L670 200L570 200Z" fill="#4A49CB"/>
<path d="M570 200L470 200L570 300V200Z" fill="#6559FF"/>
<path d="M570 100L470 100L570 200L570 100Z" fill="#6559FF"/>
<path d="M570 100L570 0.000488281L470 100L570 100Z" fill="#9D8DFF"/>
<path d="M570 100L670 100L570 0.000479539L570 100Z" fill="#B0A8FF"/>
</g>
<mask id="mask2_19358_4880" style="mask-type:alpha" maskUnits="userSpaceOnUse" x="0" y="0" width="200" height="300">
<path d="M8.74228e-06 0L72.6863 72.6863C82.7657 82.7657 100 75.6271 100 61.3726V16.0003C100 7.1637 107.163 0.00025177 116 0.00025177H184C192.837 0.00025177 200 7.16369 200 16.0002V300L127.314 227.314C117.234 217.234 100 224.373 100 238.627V284C100 292.837 92.8366 300 84 300H16C7.16344 300 2.08749e-07 292.837 4.66255e-07 284L8.74228e-06 0Z" fill="#373083"/>
</mask>
<g mask="url(#mask2_19358_4880)">
<path d="M0.00012207 100L100 100L0.000130813 -8.74228e-06L0.00012207 100Z" fill="#9D8DFF"/>
<path d="M200 200L100 200L200 300V200Z" fill="#B0A8FF"/>
<path d="M0.000350952 200L100 200L0.000353368 100L0.000350952 200Z" fill="#6559FF"/>
<path d="M100 100L100 200L200 100L100 100Z" fill="#D6D8FF"/>
<path d="M200 0L100 0L200 100L200 0Z" fill="#B0A8FF"/>
<path d="M100 200L0 200L100 300L100 200Z" fill="#4A49CB"/>
<path d="M100 100L0.000244141 100L100 200L100 100Z" fill="#B0A8FF"/>
<path d="M200 200L200 100L100 200L200 200Z" fill="#9D8DFF"/>
<path d="M100 100L200 100L100 -8.74228e-06L100 100Z" fill="#9D8DFF"/>
<path d="M0 300L100 300L8.74228e-06 200L0 300Z" fill="#6559FF"/>
</g>
</svg>
